<?xml version="1.0" encoding="utf-8"?>
<!-- Generator: Adobe Illustrator 24.0.2, SVG Export Plug-In . SVG Version: 6.00 Build 0)  -->
<svg version="1.1" id="Layer_1" xmlns="http://www.w3.org/2000/svg" xmlns:xlink="http://www.w3.org/1999/xlink" x="0px" y="0px"
	 viewBox="0 0 25.4 25.5" style="enable-background:new 0 0 25.4 25.5;" xml:space="preserve">
<style type="text/css">
	.st0{fill:#FFFFFF;}
</style>
<g>
	
		<image style="overflow:visible;opacity:0.75;enable-background:new    ;" width="28" height="31" xlink:href="39EA2B23.png"  transform="matrix(1 0 0 1 -0.4364 -2.3274)">
	</image>
	<g>
		<path class="st0" d="M12.4,23.8c0.2,0.2,0.2,0.5,0,0.7c-0.1,0.1-0.2,0.1-0.4,0.1c-0.1,0-0.3,0-0.4-0.1l-9.3-9.4
			c-0.7-0.7-1-1.5-1-2.5s0.4-1.8,1-2.5l9.3-9.4c0.2-0.2,0.5-0.2,0.7,0s0.2,0.5,0,0.7L3,10.8c-0.5,0.5-0.7,1.1-0.7,1.8
			s0.3,1.3,0.7,1.8C3.1,14.4,12.4,23.8,12.4,23.8z M12.8,13.7c-0.3-0.3-0.4-0.7-0.4-1.1s0.2-0.8,0.4-1.1l9.9-10.1
			c0.2-0.2,0.2-0.5,0-0.7s-0.5-0.2-0.7,0l-9.9,10.1c-0.5,0.5-0.7,1.1-0.7,1.8s0.3,1.3,0.7,1.8L22,24.5c0.1,0.1,0.2,0.1,0.4,0.1
			c0.1,0,0.3,0,0.4-0.1c0.2-0.2,0.2-0.5,0-0.7L12.8,13.7L12.8,13.7z"/>
	</g>
	<g>
		<path d="M11.5,23.8c0.2,0.2,0.2,0.5,0,0.7c-0.1,0.1-0.2,0.1-0.4,0.1c-0.1,0-0.3,0-0.4-0.1l-9.3-9.4c-0.7-0.7-1-1.5-1-2.5
			s0.4-1.8,1-2.5l9.3-9.4c0.2-0.2,0.5-0.2,0.7,0s0.2,0.5,0,0.7l-9.3,9.4c-0.5,0.5-0.7,1.1-0.7,1.8s0.3,1.3,0.7,1.8
			C2.2,14.4,11.5,23.8,11.5,23.8z M11.9,13.7c-0.3-0.3-0.4-0.7-0.4-1.1s0.2-0.8,0.4-1.1l9.9-10.1c0.2-0.2,0.2-0.5,0-0.7
			s-0.5-0.2-0.7,0l-9.9,10.1c-0.5,0.5-0.7,1.1-0.7,1.8s0.3,1.3,0.7,1.8l9.9,10.1c0.1,0.1,0.2,0.1,0.4,0.1c0.1,0,0.3,0,0.4-0.1
			c0.2-0.2,0.2-0.5,0-0.7L11.9,13.7L11.9,13.7z"/>
	</g>
</g>
</svg>
