<?xml version="1.0" encoding="utf-8"?>
<!-- Generator: Adobe Illustrator 24.0.2, SVG Export Plug-In . SVG Version: 6.00 Build 0)  -->
<svg version="1.1" id="Layer_1" xmlns="http://www.w3.org/2000/svg" xmlns:xlink="http://www.w3.org/1999/xlink" x="0px" y="0px"
	 viewBox="0 0 25.4 26.1" style="enable-background:new 0 0 25.4 26.1;" xml:space="preserve">
<style type="text/css">
	.st0{fill:#FFFFFF;}
</style>
<g>
	<g>
		<g>
			<path class="st0" d="M23.9,13c0,0.9-0.4,1.8-1,2.5l-9.3,9.4C13.5,25,13.3,25,13.2,25s-0.3,0-0.4-0.1c-0.2-0.2-0.2-0.5,0-0.7
				l9.3-9.4c0.5-0.5,0.7-1.1,0.7-1.8s-0.3-1.3-0.7-1.8l-9.3-9.4c-0.2-0.2-0.2-0.5,0-0.7C13,1,13.4,1,13.6,1.1l9.3,9.4
				C23.5,11.2,23.9,12.1,23.9,13z M13.9,13c0-0.7-0.3-1.3-0.7-1.8L3.2,1.1C3,1,2.7,0.9,2.5,1.1s-0.2,0.5,0,0.7l9.9,10.1
				c0.3,0.3,0.4,0.7,0.4,1.1s-0.2,0.8-0.4,1.1l-9.9,10c-0.2,0.2-0.2,0.5,0,0.7C2.6,25,2.7,25,2.9,25c0.1,0,0.3,0,0.4-0.1l9.9-10.1
				C13.6,14.3,13.9,13.7,13.9,13z"/>
		</g>
	</g>
	<g>
		<path d="M24.6,13c0,0.9-0.4,1.8-1,2.5l-9.3,9.4C14.2,25,14,25,13.9,25s-0.3,0-0.4-0.1c-0.2-0.2-0.2-0.5,0-0.7l9.3-9.4
			c0.5-0.5,0.7-1.1,0.7-1.8s-0.3-1.3-0.7-1.8l-9.3-9.4c-0.2-0.2-0.2-0.5,0-0.7c0.2-0.1,0.6-0.1,0.8,0l9.3,9.4
			C24.2,11.2,24.6,12.1,24.6,13z M14.6,13c0-0.7-0.3-1.3-0.7-1.8L3.9,1.1C3.7,1,3.4,0.9,3.2,1.1S3,1.6,3.2,1.8l9.9,10.1
			c0.3,0.3,0.4,0.7,0.4,1.1s-0.2,0.8-0.4,1.1l-9.9,10c-0.2,0.2-0.2,0.5,0,0.7C3.3,25,3.4,25,3.6,25c0.1,0,0.3,0,0.4-0.1l9.9-10.1
			C14.3,14.3,14.6,13.7,14.6,13z"/>
	</g>
</g>
</svg>
